<svg xmlns="http://www.w3.org/2000/svg" viewBox="0 0 483.06 781.38"><defs><style>.cls-1,.cls-3,.cls-5{fill:none;stroke:#ad8c32;stroke-miterlimit:10;}.cls-1{stroke-width:4.55px;}.cls-2{fill:#ad8c32;}.cls-3{stroke-width:5.99px;}.cls-4{fill:#31af31;}.cls-5{stroke-width:5px;}</style></defs><g id="Layer_2" data-name="Layer 2"><g id="Layer_1-2" data-name="Layer 1"><path class="cls-1" d="M196.94,450.27a177.84,177.84,0,0,1,65.89-12.6c102.07,0,184.81,86.21,184.81,192.57S364.9,779.11,262.83,779.11,78,736.59,78,630.24a197.12,197.12,0,0,1,35.82-114"/><path class="cls-2" d="M87.94,681.5c0-.44,0-.22.1-.06a6.52,6.52,0,0,0,.7.72,17.15,17.15,0,0,0,2,1.51,51,51,0,0,0,4.78,2.69c3.34,1.66,6.82,3.14,10.33,4.52,7.06,2.75,14.28,5.14,21.58,7.3a438.39,438.39,0,0,0,44.47,10.49,500.63,500.63,0,0,0,182,.16,439.52,439.52,0,0,0,44.51-10.43c7.3-2.15,14.54-4.52,21.61-7.26,3.52-1.39,7-2.86,10.36-4.52a50.82,50.82,0,0,0,4.82-2.7,18.21,18.21,0,0,0,2.07-1.53,6.62,6.62,0,0,0,.75-.76c.16-.2.2-.44.16-.13h3.85a4.26,4.26,0,0,1-.95,2.46,9.87,9.87,0,0,1-1.25,1.31,21.19,21.19,0,0,1-2.53,1.88,52.58,52.58,0,0,1-5.19,2.92c-3.51,1.76-7.08,3.27-10.68,4.69-7.2,2.81-14.53,5.22-21.91,7.4a444.12,444.12,0,0,1-44.9,10.61,505,505,0,0,1-183.5.15,444.32,444.32,0,0,1-44.93-10.53c-7.4-2.17-14.73-4.58-22-7.38-3.61-1.42-7.19-2.92-10.71-4.67a54.29,54.29,0,0,1-5.22-2.93,21.67,21.67,0,0,1-2.58-1.91,11.21,11.21,0,0,1-1.28-1.35,3.5,3.5,0,0,1-.32-.47,3.08,3.08,0,0,1-.31-.55,4.82,4.82,0,0,1-.26-.7,5.94,5.94,0,0,1-.13-.93Z"/><path class="cls-2" d="M87.11,576.35a3,3,0,0,0,1,1.37,14,14,0,0,0,2.07,1.55A42.47,42.47,0,0,0,95,581.85c3.39,1.55,6.93,2.86,10.5,4.08,7.15,2.41,14.47,4.41,21.83,6.21,14.74,3.56,29.69,6.3,44.71,8.49a644.72,644.72,0,0,0,90.81,6.56,643.67,643.67,0,0,0,90.85-6.34c15-2.15,30-4.85,44.75-8.39,7.38-1.78,14.7-3.77,21.88-6.17a110.91,110.91,0,0,0,10.54-4.08,43.34,43.34,0,0,0,4.92-2.59A16.79,16.79,0,0,0,438,578a3.06,3.06,0,0,0,1.09-1.67h2a3.53,3.53,0,0,1-.63,1.87c-.16.25-.35.46-.52.68l-.56.58a17.89,17.89,0,0,1-2.43,1.82,44,44,0,0,1-5.15,2.74A115,115,0,0,1,421,588.22c-7.26,2.44-14.62,4.46-22,6.27-14.83,3.59-29.85,6.34-44.93,8.53a645.19,645.19,0,0,1-91.16,6.57,647,647,0,0,1-91.18-6.38c-15.1-2.17-30.12-4.88-45-8.44-7.42-1.78-14.8-3.79-22.08-6.22a113.85,113.85,0,0,1-10.77-4.16,44.22,44.22,0,0,1-5.22-2.75,19.17,19.17,0,0,1-2.49-1.86l-.59-.61a8,8,0,0,1-.55-.72,3.88,3.88,0,0,1-.71-2.1Z"/><path class="cls-3" d="M402.62,503.24c15.67-55.14-2.34-106.52-5.26-187.5C392.43,179,435.28,89.05,430.67,83.49c-7.26-8.75-101.11,228-100.21,367.11"/><path class="cls-4" d="M427.24,42.43c5.76,14.17,3.7,28.39-4.61,31.77s-19.73-5.35-25.49-19.52-12.93-51-4.61-54.43S421.47,28.26,427.24,42.43Z"/><path class="cls-4" d="M467.29,60.18C459.55,72,447.64,77.94,440.69,73.4s-6.31-17.82,1.43-29.66,32-36.72,39-32.18S475,48.33,467.29,60.18Z"/><path class="cls-5" d="M196.53,523c-1.74,2.78-17.15,27.26-39.27,27.35-22.66.1-38.15-25.45-39.27-27.35-18.8-32,2.81-61.75,6.31-108.69,5.92-79.29-45.51-131.42-40-134.64C94.29,273.9,240,454,196.53,523Z"/><path class="cls-4" d="M62.35,239.64c2.47,15.09,11.65,26.15,20.51,24.7s14-14.85,11.57-29.95S78.83,184.1,70,185.55,59.89,224.54,62.35,239.64Z"/><path class="cls-4" d="M37.44,275.67c12.78,6.07,26,4.91,29.59-2.59s-3.91-18.5-16.69-24.57-46.47-14.62-50-7.12S24.66,269.6,37.44,275.67Z"/></g></g></svg>